<mxfile host="65bd71144e">
    <diagram id="wG4YqUenyxTH7dfp8T2i" name="Page-1">
        <mxGraphModel dx="598" dy="988" grid="1" gridSize="10" guides="1" tooltips="1" connect="1" arrows="1" fold="1" page="1" pageScale="1" pageWidth="850" pageHeight="1100" math="0" shadow="0">
            <root>
                <mxCell id="0"/>
                <mxCell id="1" parent="0"/>
                <mxCell id="5" style="edgeStyle=none;html=1;exitX=1;exitY=0.5;exitDx=0;exitDy=0;entryX=0;entryY=0.5;entryDx=0;entryDy=0;" parent="1" source="2" target="3" edge="1">
                    <mxGeometry relative="1" as="geometry"/>
                </mxCell>
                <object label="&lt;div style=&quot;color: rgb(204, 204, 204); background-color: rgb(31, 31, 31); font-family: Consolas, &amp;quot;Courier New&amp;quot;, monospace; font-size: 14px; line-height: 19px;&quot;&gt;&lt;span style=&quot;color: #dcdcaa;&quot;&gt;#&lt;/span&gt;&lt;span style=&quot;color: rgb(220, 220, 170);&quot;&gt;SSD1306_Init&lt;/span&gt;&lt;/div&gt;" hedietLinkedDataV1_path="../../../Component/SSD_1306/Src/SSD_1306.c" hedietLinkedDataV1_start_col_x-num="49" hedietLinkedDataV1_start_line_x-num="445" hedietLinkedDataV1_end_col_x-num="49" hedietLinkedDataV1_end_line_x-num="445" id="2">
                    <mxCell style="rounded=0;whiteSpace=wrap;html=1;" parent="1" vertex="1">
                        <mxGeometry x="50" y="260" width="120" height="60" as="geometry"/>
                    </mxCell>
                </object>
                <mxCell id="3" value="&lt;span style=&quot;color: rgb(220, 220, 170); background-color: rgb(31, 31, 31); font-family: Consolas, &amp;quot;Courier New&amp;quot;, monospace; font-size: 14px;&quot;&gt;#&lt;/span&gt;&lt;span style=&quot;color: rgb(220, 220, 170); background-color: rgb(31, 31, 31); font-family: Consolas, &amp;quot;Courier New&amp;quot;, monospace; font-size: 14px;&quot;&gt;SSD1306_Putc&lt;/span&gt;" style="ellipse;whiteSpace=wrap;html=1;aspect=fixed;" parent="1" vertex="1">
                    <mxGeometry x="450" y="260" width="80" height="80" as="geometry"/>
                </mxCell>
            </root>
        </mxGraphModel>
    </diagram>
</mxfile>